<svg xmlns="http://www.w3.org/2000/svg" viewBox="0 0 84 112" fill="none" stroke="#4A2C1F" stroke-linecap="round" stroke-linejoin="round"><path stroke-width="1.35" d="M24 15h36"/><path stroke-width="1.35" d="M25 17c0 8 0 12-5 18-5 5-8 12-8 20 0 14 10 25 30 29 20-4 30-15 30-29 0-8-3-15-8-20-5-6-5-10-5-18"/><path stroke-width="1.35" d="M14 41c12 5 43 5 56 0"/><path stroke-width="1.35" d="M13 53c13 4 43 4 58 0"/><circle cx="24" cy="47" r="1.2" fill="#4A2C1F" stroke="none"/><circle cx="31" cy="48" r="1.2" fill="#4A2C1F" stroke="none"/><circle cx="38" cy="48" r="1.2" fill="#4A2C1F" stroke="none"/><circle cx="45" cy="48" r="1.2" fill="#4A2C1F" stroke="none"/><circle cx="52" cy="47" r="1.2" fill="#4A2C1F" stroke="none"/></svg>